<svg xmlns="http://www.w3.org/2000/svg" width="1920" height="1120" viewBox="0 0 1920 1120">
    <defs>
        <clipPath id="clip-path">
            <path id="Rectangle_331" fill="none" d="M0 0H1920V1120H0z" transform="translate(1968.138 3227.67)"/>
        </clipPath>
        <style>
            .cls-5{fill:#fff}
        </style>
    </defs>
    <g id="Group_742" transform="translate(-1968.138 -3227.67)">
        <g id="Group_741" clip-path="url(#clip-path)">
            <g id="Group_740">
                <path id="Rectangle_330" fill="#edebea" d="M0 0H1920V1120H0z" transform="translate(1968.138 3227.67)"/>
                <g id="Group_739" opacity="0.5">
                    <g id="Group_738">
                        <path id="Path_2157" d="M3731.558 3356.225c5.135 39.215 10.908 78.425 17.662 117.558 6.762 39.17 14.661 78.27 22.058 117.4 7.425 39.275 14.358 78.592 19.147 118.008 2.388 19.65 4.242 39.322 5.348 59.011 1.092 19.428.206 38.93 2.616 58.324 4.8 38.608 19.665 76.51 25.448 115.056 2.925 19.5 3.056 39.13 2.529 58.685-.532 19.78-2.13 39.546-4.343 59.286-4.389 39.158-11.226 78.2-17.059 117.293-5.879 39.41-10.732 78.916-11.028 118.49-.071 9.51.122 19.021.63 28.526q.381 7.125 1.005 14.243.313 3.558.691 7.114c.051.476-.192 2.37.668 2.37h2.2c-4.462-39.523-2.714-79.193 1.583-118.693 4.259-39.15 11.063-78.185 16.939-117.26 5.9-39.247 10.883-78.584 11.455-118 .284-19.512-.308-39.031-3.7-58.456-3.366-19.285-8.732-38.426-13.715-57.586-4.952-19.041-9.56-38.149-11.36-57.391-.9-9.671-.75-19.349-.993-29.029q-.371-14.751-1.335-29.5c-2.547-39.452-7.99-78.823-14.645-118.108-6.658-39.3-14.537-78.535-22.011-117.789-7.42-38.97-13.916-77.975-19.747-117.035-5.9-39.551-11.131-79.126-14.92-118.765q-.773-8.069-1.478-16.14-.366-4.187-.715-8.373c-.03-.373-.167-3.589-.407-3.589h-2.5q3.847 47.206 9.969 94.341c3.681 28.058-4.088-31.277.008.009z" class="cls-5"/>
                        <path id="Path_2158" d="M3715.669 4235.336q.671 29.082 2.25 58.153.8 14.728 1.814 29.451.5 7.215 1.05 14.429.275 3.607.564 7.214c.025.323.12 3.006.354 3.006h2.5c-3.243-39.762-5.41-79.566-6.065-119.371-.318-19.324 0-38.709 3.8-57.93 3.813-19.268 12.185-37.928 22.05-56.425 9.8-18.368 19.933-36.656 28.8-55.187 8.736-18.266 16.617-36.671 23.4-55.212 13.559-37.055 22.781-74.714 25.271-112.587a291.82 291.82 0 0 0-1.612-56.425c-2.453-19.073-7.723-37.943-11.859-56.906-8.417-38.593-14.352-77.417-15.248-116.331-.89-38.608 3.236-77.331 14.958-115.375 11.609-37.676 31.12-74.442 38.848-112.53 3.343-16.478 4.822-33.064 5.573-49.643.9-19.874.806-39.763-.057-59.636q-.726-16.74-2.159-33.466-.708-8.368-1.573-16.733-.43-4.182-.9-8.364c-.042-.374-.26-3.584-.52-3.584h-2.5c4.612 39.926 6.863 79.972 5.179 119.985-.7 16.683-2.107 33.374-5.372 49.96-3.625 18.414-9.939 36.585-16.946 54.656-7.4 19.084-15.542 38.085-21.593 57.335a333.654 333.654 0 0 0-12.525 57.319c-5 38.625-3.619 77.453 1.494 116.048 2.571 19.4 6.087 38.761 10.242 58.07 4.084 18.983 9.431 37.878 12.04 56.958 5.146 37.64 2.277 75.549-6.1 112.962-8.424 37.642-22.38 74.823-39.758 111.406-8.8 18.536-18.848 36.835-28.7 55.19-9.94 18.522-18.6 37.206-22.654 56.5-4.667 22.24-4.566 44.7-4.052 67.066.865 37.261-.645-28.333.006-.003z" class="cls-5"/>
                        <path id="Path_2159" d="M3659.214 3407.473a1119.134 1119.134 0 0 1 33.263 115.923 784.791 784.791 0 0 1 17.725 117.023 606.374 606.374 0 0 1-2.665 117.407q-1.812 14.682-4.422 29.328c-1.743 9.764-4.043 19.493-5.63 29.266a315.735 315.735 0 0 0-3.5 58.751c.986 39.055 6.9 78.018 10.862 116.994 4.007 39.413 7.6 78.87 6.783 118.366-.816 39.567-5.509 79.08-12.389 118.44-6.863 39.265-15.912 78.39-25.58 117.454l-.289 1.164h2.22c.879 0 .868-1.846.988-2.329q.936-3.786 1.863-7.574 1.786-7.3 3.535-14.6 3.5-14.638 6.808-29.292c4.405-19.607 8.478-39.24 12.022-58.9 7.093-39.357 12.078-78.865 13.276-118.438 1.2-39.542-2.079-79.048-6.044-118.513-3.914-38.962-9.762-77.909-11.248-116.937a334.174 334.174 0 0 1 2.434-58.748c1.357-9.783 3.575-19.505 5.426-29.258q2.781-14.656 4.746-29.359a601.243 601.243 0 0 0 3.8-117.522 773.412 773.412 0 0 0-16.844-117.131 1098.276 1098.276 0 0 0-32.622-116.046c-13.075-38.757-26.581-77.463-38.021-116.4q-2.845-9.686-5.525-19.386-1.375-4.992-2.7-9.988-.623-2.35-1.234-4.7c-.237-.911-1.339-.587-2.784-.587 10.169 39.272 22.883 78.3 36.09 117.268q4.8 14.164 9.662 28.321c44.662 130.49-16.35-47.744-.006.003z" class="cls-5"/>
                        <path id="Path_2160" d="M3608.668 4008.674c-9.108 18.644-18.261 37.381-22.716 56.626-4.491 19.4-3.959 39.039-2.7 58.552 2.511 39.04 5.348 78.1 10.11 117.073 2.255 18.455 4.994 36.893 8.479 55.285q2.63 13.872 5.826 27.706 1.633 7.1 3.4 14.2.882 3.553 1.792 7.1c.125.487.139 2.369 1.022 2.369h2.221a842.967 842.967 0 0 1-21.45-117.983c-2.194-19.577-3.9-39.172-5.409-58.77-1.491-19.345-3.167-38.7-3.985-58.061-.825-19.527.177-39.035 6.336-58.283 6.136-19.179 16.053-37.848 25.026-56.622 17.869-37.385 37.035-74.745 48.944-112.961 5.888-18.9 9.891-38.025 10.622-57.235a139.111 139.111 0 0 0-9.009-55.369c-6.844-18-16.628-35.57-26.092-53.153-9.51-17.67-18.2-35.369-24.438-53.532-6.223-18.132-11.858-36.457-12.431-54.989-.6-19.368 5.051-38.538 12.2-57.393 7.257-19.14 15.4-38.156 22.3-57.342q10.413-28.908 18.827-58.041a1024.548 1024.548 0 0 0 26.4-116.754q4.926-29.57 8.257-59.217h-2.2c-.857 0-.622 1.874-.677 2.35q-.439 3.818-.905 7.636-.9 7.342-1.885 14.68-1.978 14.676-4.347 29.334-4.746 29.322-11.148 58.546a977.449 977.449 0 0 1-33.19 116.463c-6.817 19.247-14.742 38.334-22.23 57.494-7.437 19.028-13.8 38.359-14.047 57.933-.229 18.5 4.888 36.848 10.951 54.963a285.615 285.615 0 0 0 10.487 27.5c4.036 8.9 8.613 17.723 13.317 26.515 9.437 17.639 19.432 35.207 26.717 53.2a140.17 140.17 0 0 1 10.623 55.19c-.56 38.73-14.657 76.9-31.46 114.228-10.652 23.662-22.037 47.233-33.529 70.763-9.169 18.748 2.362-4.855-.009-.001z" class="cls-5"/>
                        <path id="Path_2161" d="M3487.565 3439.281c.74 39.282 9.946 78.287 19.546 117.111 8.109 32.792 16.61 65.583 20.1 98.671a822.2 822.2 0 0 1 4.16 86.365c0 13.764-.3 27.531-1.157 41.286-.9 14.319-2.938 28.58-4.822 42.864-5.242 39.757-10.224 79.526-14.3 119.329-4.063 39.7-7.225 79.439-8.8 119.2-1.566 39.43-.874 78.815.357 118.242 1.236 39.6 2.151 79.211 1.343 118.818-.316 15.477-.894 30.952-1.826 46.42h2.2c.853 0 .521-1.9.548-2.376q.224-3.862.418-7.726.376-7.438.652-14.877.557-14.9.759-29.8c.286-19.86.165-39.72-.188-59.579-.7-39.372-2.85-78.74-2.757-118.115.094-39.661 2.071-79.314 5.229-118.93 3.173-39.815 7.542-79.595 12.444-119.35q3.675-29.806 7.671-59.6c1.766-13.3 3.337-26.565 4.023-39.9a816.152 816.152 0 0 0-.576-86.891c-1.563-28.292-4.829-56.406-10.979-84.494-8.523-38.92-20.014-77.622-26.5-116.687a350.2 350.2 0 0 1-5-58.886c.08-19.8 1.587-39.594 3.611-59.359 3.727-36.384 8.859-72.7 11.052-109.136h-2.2c-.851 0-.525 1.924-.555 2.4q-.243 3.9-.515 7.8-.525 7.482-1.169 14.962c-.852 9.828-1.888 19.65-3 29.469-2.208 19.527-4.709 39.044-6.633 58.581-2.1 21.372-3.536 42.779-3.134 64.189 1.209 64.313-.648-34.376-.002-.001z" class="cls-5"/>
                        <path id="Path_2162" d="M3402.284 3804.736c-4.546 37.071 10.073 73.84 29.488 108.924 9.966 18.009 21.286 35.753 32.53 53.5s22.129 35.6 32.746 53.488c21.471 36.182 41.633 72.8 53.689 110.475 5.958 18.618 9.889 37.473 10.86 56.407 1 19.585-1.585 39.132-5.619 58.567-4.044 19.487-9.194 38.9-14.005 58.334l-10.681 43.14v.015c1.485 0 2.54.373 2.751-.481l.572-2.31 2.277-9.2 6.932-27.994c4.576-18.484 9.409-36.959 13.492-55.481 4.307-19.535 7.476-39.195 7.092-58.907-.37-18.945-3.772-37.841-9.3-56.506-11.169-37.733-30.81-74.422-52.08-110.6-10.545-17.937-21.346-35.827-32.582-53.623-11.218-17.765-22.661-35.489-32.907-53.453-19.976-35.027-35.865-71.646-33.178-108.808.876-12.113 3.814-24.16 7.188-36.115 3.838-13.6 8.4-27.125 13.141-40.626 10.06-28.665 21.142-57.216 30.275-85.988a323.946 323.946 0 0 0 9.871-37.1c3.106-16.3 2.478-32.617.765-48.966-2.028-19.343-5.054-38.748-2.731-58.131 2.346-19.576 9.585-38.951 16.909-58.068 7.295-19.042 14.667-38.052 20.76-57.239 6.118-19.27 11.417-38.624 16.406-58 5.6-21.763 10.9-43.554 16.291-65.335q.342-1.386.686-2.771c-2.408 0-2.561-.288-2.866.946l-1.045 4.218q-1.7 6.879-3.406 13.757-3.423 13.82-6.85 27.638c-9.629 38.665-19.848 77.3-34.406 115.465-7.3 19.143-15.251 38.225-20.554 57.6a139.271 139.271 0 0 0-5.164 29.138 192.584 192.584 0 0 0 1.009 29.011c1.86 19.185 5.137 38.4 3.483 57.634-1.019 11.856-3.941 23.651-7.252 35.356-8.013 28.322-18.795 56.366-28.924 84.452-9.418 26.112-19.278 52.364-24.285 78.911-.549 2.904-1.021 5.813-1.378 8.726z" class="cls-5"/>
                        <path id="Path_2163" d="M3286.864 3270.06l1.277 16.329 3.262 41.687 4.389 56.09 4.659 59.541 4.073 52.038 2.627 33.581c1.3 16.627 2.542 33.256 4.318 49.869a631.5 631.5 0 0 0 10.389 62.955q4.121 19.568 8 39.149 5.59 28.141 10.728 56.311 6.066 33.3 11.4 66.646c3.714 23.367 7.116 46.751 10.025 70.156 2.766 22.259 5.109 44.54 6.6 66.84 1.261 18.884 2 37.8 1.122 56.7-.616 13.231-1.543 26.752-6.4 39.73-6.7 17.881-16.5 35.367-24.905 52.992-9.009 18.885-16.4 37.923-19.957 57.429-3.519 19.294-4.052 38.724-3.527 58.108.536 19.81 1.9 39.62 3.379 59.413q1.614 21.537 3.721 43.06 1.055 10.776 2.231 21.547.588 5.388 1.207 10.775.309 2.694.626 5.388c.086.729-.368 1.2.967 1.2h1.785q-7.07-59.744-10.374-119.61c-2.12-38.842-2.145-77.761 13.1-115.829 7.6-18.986 17.756-37.581 26.551-56.385 4.3-9.2 8.551-18.387 10.652-27.847 3.36-15.137 3.852-30.5 3.878-45.741.035-20.2-1.237-40.4-3.009-60.571-2.01-22.885-4.737-45.749-7.852-68.593-3.176-23.287-6.771-46.555-10.65-69.807q-5.358-32.127-11.4-64.214-4.862-25.92-10.109-51.814-3.3-16.308-6.771-32.6c-6.41-30.063-9.561-60.239-11.959-90.486q-.885-11.157-1.749-22.313l-3.151-40.269-4.338-55.438-4.669-59.656-4.14-52.919-2.757-35.23-.527-6.737-.108-1.371-.057-.739-.45-5.793c-.032-.421.329-1.738-.542-1.738h-2.2l.635 8.166z" class="cls-5"/>
                        <path id="Path_2164" d="M3310.137 4265.965c-17.662 26.816-35.386 53.728-47.351 81.624h2.26c.91 0 1.188-1.766 1.405-2.257q1.625-3.667 3.376-7.317 3.372-7.029 7.154-13.991c5.026-9.291 10.516-18.5 16.245-27.651 11.21-17.913 23.343-35.627 34.74-53.5 22.4-35.135 42.331-71.469 45.229-109.152 3.022-39.3-12.258-78.059-23.921-116.527s-24.638-76.859-31.113-115.764c-3.209-19.281-4.8-38.674-3.7-58.042 1.109-19.484 5.97-38.595 11.37-57.808 10.915-38.836 23.042-77.563 32.565-116.527 9.472-38.753 16.386-77.8 16.679-116.974a306.348 306.348 0 0 0-4.987-58.526c-3.684-19.771-8.78-39.464-12.934-59.205q-12.472-59.275-21.186-118.788-2.141-14.6-4.059-29.217-.939-7.158-1.824-14.317-.444-3.579-.872-7.159c-.039-.322-.221-2.983-.468-2.983h-2.5q7.063 59.714 17.862 119.255 5.386 29.679 11.713 59.3c4.212 19.713 9.453 39.388 12.711 59.163 6.411 38.917 4.5 78.138-1.819 117.014-6.355 39.127-17.1 77.958-28.328 116.7-5.614 19.362-11.357 38.711-16.756 58.094-2.671 9.592-5.385 19.179-7.1 28.847a199.867 199.867 0 0 0-2.937 28.855c-1.2 38.922 7.969 77.661 19.151 115.953 5.612 19.216 11.65 38.392 17.541 57.58 5.9 19.228 12.474 38.4 17.031 57.754 4.546 19.309 7.07 38.849 4.784 58.326-2.2 18.726-8.529 37.216-17.1 55.3-11.606 24.487-27.253 48.243-42.864 71.947-17.456 26.5 27.99-42.503.003-.007z" class="cls-5"/>
                        <path id="Path_2165" d="M3214.294 3804.736c.056 17.392.9 34.785 1.811 52.168 1.192 22.658 2.678 45.311 4.275 67.961q2.516 35.669 5.388 71.33 2.483 31.141 5.148 62.278 1.743 20.4 3.558 40.8c1.386 15.536 2.355 31.083 3.349 46.629 2.528 39.547 4.433 79.123 3.689 118.7-.521 27.677-2.424 55.338-4.621 82.985h2.2c.853 0 .557-1.881.594-2.354q.3-3.833.595-7.667.564-7.4 1.081-14.795 1.032-14.844 1.776-29.693 1.44-29.669 1.055-59.348c-.5-39.481-3.09-78.938-5.811-118.384-.552-8.006-1.3-16-2-24.006q-2.1-23.822-4.107-47.644-2.772-32.946-5.345-65.9-2.789-35.844-5.23-71.7c-1.452-21.677-2.789-43.358-3.758-65.043-.717-16.049-1.252-32.1-.916-48.157.424-20.293 1.529-40.582 2.718-60.864q2.091-35.672 4.737-71.331 2.234-30.847 4.7-61.69 1.272-15.973 2.6-31.946a64.554 64.554 0 0 0-.044-6.87q-.335-14.621-.643-29.243c-.407-19.68-.741-39.361-.885-59.042-.291-39.581.173-79.17 2.387-118.733 1.7-30.448 4.486-60.872 6.9-91.3h-2.2c-.854 0-.558 1.889-.6 2.363q-.307 3.831-.619 7.663-.594 7.316-1.2 14.632-1.211 14.662-2.363 29.328c-1.518 19.723-2.782 39.451-3.58 59.189-1.6 39.583-1.645 79.183-1.1 118.774.267 19.6.681 39.206 1.123 58.808a162.663 162.663 0 0 1-.014 17.2q-1.623 19.479-3.147 38.961-2.553 32.489-4.861 64.984c-1.669 23.631-3.23 47.264-4.519 70.9-1.031 18.9-2.017 37.81-2.12 56.721q-.006 1.674-.001 3.336z" class="cls-5"/>
                        <path id="Path_2166" d="M3128.615 3422c.235 19.316.425 38.623 2.435 57.911a526.446 526.446 0 0 0 9.421 57.118c8.267 38.056 19.793 75.838 30.646 113.666 10.845 37.8 21.047 75.705 26.626 113.9 1.393 9.538 2.5 19.091 3.249 28.653.56 7.116 1.25 14.158-.357 21.24-3.132 13.8-9.9 27.273-15.1 40.837a108.344 108.344 0 0 0-5.954 19.469c-1.219 6.819-.239 13.548 2.079 20.266 5.891 17.077 19.287 32.861 29.6 49.111 11.091 17.475 16.377 35.869 19.8 54.329a239.277 239.277 0 0 1 3.3 57.759c-2.281 38.934-12.636 77.552-25.539 115.732-12.97 38.375-28.6 76.427-41.986 114.752-7.052 20.19-13.485 40.456-18.54 60.848h2.219c.867 0 .8-1.611.914-2.073q.95-3.754 1.961-7.5 1.953-7.242 4.109-14.466c2.883-9.686 6.01-19.349 9.3-28.992 6.554-19.23 13.745-38.385 20.969-57.534 14.385-38.131 28.92-76.293 38.579-114.942 9.568-38.282 14.325-77.164 8.63-115.783a214.305 214.305 0 0 0-6.272-28.779c-2.643-9.06-5.79-18.037-10.744-26.778-9.4-16.592-23.17-32.3-31.031-49.193-3.391-7.289-5.942-14.963-5.46-22.544.394-6.193 2.346-12.348 4.507-18.405 4.935-13.826 11.83-27.415 16.014-41.332a52.765 52.765 0 0 0 2.2-18.553c-.547-9.57-1.465-19.133-2.692-28.682a576.044 576.044 0 0 0-10.554-57.1c-8.851-38.028-20.615-75.8-31.346-113.659-10.71-37.787-20.415-75.724-25.087-113.943s-2.512-76.54-4.58-114.8a381 381 0 0 0-6.889-56.972 255.469 255.469 0 0 0-7.477-28.154q-2.3-6.99-5.092-13.922-1.343-3.328-2.806-6.639-.732-1.656-1.5-3.307c-.5-1.083-.172-1.65-2.124-1.65h-1.354c17.452 36.735 22.832 74.957 24.747 112.906.794 15.731.988 31.469 1.179 47.205.112 9.2-.647-53.283 0 0z" class="cls-5"/>
                        <path id="Path_2167" d="M3086.568 3483.885c9.343 37.291 8.055 75.15 2.655 112.609-5.481 38.027-15.083 75.8-22.406 113.71-3.674 19.027-6.786 38.1-8.527 57.221-1.681 18.458-2.459 37.045-.031 55.492 4.624 35.125 19.421 69.452 33.736 103.582 14.391 34.311 28.747 68.9 32.532 104.256a148.961 148.961 0 0 1-3.62 53.147c-4.982 19.462-12.52 38.67-20.814 57.738-16.582 38.118-35.95 75.863-45.5 114.867a321.525 321.525 0 0 0-7.835 47.475q-1.094 12.06-1.374 24.141-.144 5.9-.112 11.794.015 2.95.073 5.9c.008.42-.428 1.771.445 1.771h2.2c-.926-39.4 3.712-78.9 17.052-117.585 13.253-38.433 33.849-75.849 48.257-114.128 6.932-18.416 12.785-37.077 14.3-55.935 1.418-17.592-.5-35.226-4.463-52.673-8-35.2-24.094-69.539-38.116-104.039-13.94-34.3-25.457-68.887-25.5-104.246-.05-38.356 7.155-76.55 15.177-114.575 7.965-37.76 16.83-75.519 20.08-113.542a293.617 293.617 0 0 0-.19-56.341c-2.067-19.316-7.332-38.392-12.2-57.52-9.944-39.107-19.829-78.24-26.476-117.59-2.3-13.592-4.2-27.208-5.585-40.843q-1.05-10.352-1.674-20.717-.3-5.028-.487-10.058-.1-2.661-.165-5.322c-.024-.934-1.2-.591-2.621-.591.929 39.625 7.345 79.138 15.866 118.437 7.5 34.6 16.669 69.06 25.316 103.564 26.439 105.475-2.071-8.292.007.001z" class="cls-5"/>
                        <path id="Path_2168" d="M3060.785 3999.972c2.863 34.334 5.634 69.179-6.123 103.1-6.085 17.556-16.4 34.357-31.35 50.047-15.679 16.459-34.819 31.735-49.9 48.392-28.013 30.938-37 65.688-34.928 100.3a211.726 211.726 0 0 0 3.045 24.783q1.14 6.336 2.589 12.653.7 3.06 1.456 6.114c.118.476.1 2.233.974 2.233h2.223c-8.88-34.728-12.776-70.679 1.165-105.153 6.983-17.266 18.683-33.528 34.031-48.854 16.379-16.356 35.56-31.788 49.79-48.85 26.566-31.849 32.464-67.726 32.1-102.645-.157-15.087-1.489-30.155-2.713-45.223q-.743-9.126-1.519-18.253-1.385-16.352-2.839-32.7-1.986-22.393-4.08-44.785-2.547-27.255-5.243-54.506-3.063-30.933-6.328-61.861-3.532-33.431-7.332-66.852-3.957-34.746-8.259-69.479-4.332-34.879-9.106-69.741-4.655-33.832-9.875-67.639c-3.277-21.071-6.757-42.132-10.565-63.173-3.4-18.8-7.055-37.589-11.175-56.342-3.461-15.751-7.227-31.483-11.709-47.147-6.3-22.013-15.068-43.75-21.665-65.732q-1.6-5.322-3.06-10.655-.684-2.5-1.333-5.006c-.186-.72.165-1.108-1.119-1.108h-1.8c6.55 25.677 16.882 50.916 24.569 76.467 4.545 15.107 8.318 30.29 11.778 45.492 4.169 18.32 7.844 36.678 11.258 55.051 3.852 20.731 7.36 41.483 10.658 62.246q5.325 33.524 9.982 67.079 4.866 34.761 9.225 69.546 4.389 34.818 8.391 69.652 3.885 33.69 7.476 67.392 3.353 31.38 6.485 62.769 2.785 27.888 5.413 55.782 2.187 23.215 4.263 46.433 1.552 17.358 3.035 34.718.88 10.32 1.727 20.641l.388 4.814z" class="cls-5"/>
                        <path id="Path_2169" d="M2844.914 3804.736c3.42 19.067 10.043 37.884 17.076 56.6 7.254 19.3 14.544 38.6 22.366 57.83 15.5 38.094 32.531 75.97 48.331 114.021 15.786 38.02 30.362 76.247 40.84 114.889 10.428 38.457 16.775 77.366 15.912 116.321-.618 27.9-5.442 55.648-13.018 83.195h2.227c.887 0 .923-1.874 1.054-2.362q1.034-3.839 2-7.683 1.857-7.39 3.435-14.8c2.089-9.851 3.771-19.731 4.931-29.633a319.353 319.353 0 0 0 1.295-58.364c-2.589-38.967-11.594-77.708-23.911-116.02-12.345-38.4-28.021-76.4-44.23-114.306-16.287-38.086-33.122-76.1-47.7-114.423-7.246-19.049-14.891-38.074-20.905-57.27a274.11 274.11 0 0 1-10.977-56.713c-3.605-38.4-.9-76.931 5.77-115.173 6.733-38.626 17.471-76.982 29.931-115.116 12.5-38.25 26.748-76.3 40.644-114.381 6.927-18.985 13.538-38.006 20.348-57 6.887-19.214 14.181-38.378 21.047-57.594 6.509-18.218 12.636-36.487 17.679-54.861h-2.226c-.885 0-.931 1.87-1.067 2.357q-1.074 3.831-2.205 7.655-2.175 7.352-4.539 14.682c-3.134 9.745-6.485 19.466-9.947 29.173-6.868 19.254-14.176 38.454-21.085 57.7-13.659 38.058-27.487 76.1-41.2 114.148-13.745 38.145-26.817 76.39-37.048 114.91-10.143 38.19-17.494 76.676-19.673 115.311a372.289 372.289 0 0 0 4.845 86.907z" class="cls-5"/>
                        <path id="Path_2170" d="M2808.75 3996.484c8.2 37.89 26.99 74.68 48.782 110.621 20.436 33.7 45.1 66.7 61.688 101.147 8.947 18.577 14.68 37.471 16.646 56.729 1.975 19.343.919 38.731-.146 58.081l-1.351 24.527c2.79 0 2.6.18 2.678-1.293q.148-2.707.3-5.413l.774-14.061c.815-14.795 1.718-29.595 1.393-44.4-.427-19.411-3.293-38.722-10.491-57.708-7.06-18.619-17.4-36.76-28.623-54.662-21.131-33.717-44.157-67.016-61.824-101.429-9.355-18.224-17.308-36.707-22.89-55.448-3.161-10.614-5.664-21.212-6.106-31.982-.8-19.543 1.919-39.148 5.2-58.582 3.915-23.212 9.155-46.348 14.973-69.424 5.467-21.685 11.491-43.322 17.905-64.919q6.7-22.562 13.992-45.064 1.672-5.147 3.39-10.29a9.791 9.791 0 0 0 .5-2.955c.431-9.568.89-19.137 1.789-28.7 1.822-19.374 5.824-38.558 14.115-57.384 8.366-19 19.6-37.538 27.166-56.657 12.2-30.827 13.9-62.587 15.632-94.067q.675-12.278 1.352-24.555 1.355-24.567 2.707-49.134l3.267-59.3 3.033-55.044 2-36.376.378-6.868c-2.587 0-2.589-.313-2.655.9l-.181 3.277-.71 12.9-2.471 44.851-3.21 58.254-3.154 57.246q-1.152 20.911-2.3 41.824c-.612 11.1-1.155 22.208-1.95 33.307-1.381 19.287-3.64 38.6-9.211 57.653-5.641 19.293-15.83 37.888-25.209 56.644a234.049 234.049 0 0 0-12.464 28.609 167.5 167.5 0 0 0-6.892 28.75c-1.486 9.619-2.309 19.267-2.885 28.916-.285 4.779-.51 9.559-.725 14.339a8.976 8.976 0 0 1-.188 2.534c-2.775 8.218-5.414 16.451-8.015 24.688q-8.547 27.072-16.237 54.232c-6.436 22.758-12.412 45.561-17.616 68.424-5.085 22.348-9.541 44.769-12.147 67.264-1.915 16.536-3.571 33.494 0 50 10.949 50.649-13.949-64.431-.009-.002z" class="cls-5"/>
                        <path id="Path_2171" d="M2611.4 3639.481c6.911 18.96 16.768 37.513 27.5 55.852q4 6.829 8.134 13.633 1.967 3.246 3.948 6.491c1.018 1.669 2.914 3.65 3.293 5.4q.517 2.39 1.045 4.78c4.562 20.751 9.229 41.5 14.582 62.189 3.283 12.69 7.475 25.272 11.5 37.889q9.311 29.152 18.108 58.358c11.647 38.924 22.31 77.953 31.054 117.133a997.753 997.753 0 0 1 19.486 117.781q2.958 29.535 3.649 59.124c.443 19.309.4 38.621 1 57.929s1.81 38.611 4.753 57.846a287.251 287.251 0 0 0 5.842 28.72q1.851 7.14 4.146 14.237 1.106 3.4 2.323 6.8.609 1.695 1.247 3.387c.318.842 1.082.564 2.463.564h.416c-14.413-37.718-17.644-76.5-18.685-115.008-.523-19.334-.473-38.672-.983-58.007-.521-19.731-1.865-39.453-3.919-59.15a1011.588 1011.588 0 0 0-19.874-117.754c-8.843-39.172-19.58-78.192-31.283-117.109q-8.781-29.2-18.178-58.346c-3.871-12.082-7.772-24.133-10.9-36.288-5.258-20.456-9.908-40.968-14.439-61.482-.334-1.512-.346-3.2-1.23-4.644-5.516-9.021-11.026-18.043-16.294-27.114-10.637-18.314-20.32-36.856-26.979-55.8-13.332-37.933-14.612-76.922-9.027-115.4 5.647-38.909 18.072-77.365 31.962-115.534 13.953-38.342 29.442-76.5 41.574-115.062 3.033-9.643 5.858-19.308 8.385-29h-2.226c-.88 0-.9 1.835-1.023 2.318q-1 3.776-2.067 7.546-2.049 7.28-4.288 14.541c-2.992 9.725-6.21 19.426-9.573 29.11-6.687 19.259-13.953 38.448-21.193 57.639-14.387 38.14-28.66 76.353-37.764 115.058-9.01 38.308-12.9 77.216-6.055 115.756a212.306 212.306 0 0 0 9.565 35.629z" class="cls-5"/>
                        <path id="Path_2172" d="M2587.708 3804.736c.276 4.688 2.1 9.278 3.74 13.853 1.674 4.662 2.874 9.377 4.21 14.075 2.735 9.617 5.531 19.229 8.575 28.815 6.111 19.24 13.684 38.292 21.618 57.3 7.973 19.109 16.154 38.2 22.91 57.466a389.862 389.862 0 0 1 15.294 58.05c5.892 31.746 8.5 63.651 11.11 95.532l2.112 25.8 4.157 50.774q2.434 29.752 4.871 59.5l4.256 51.992 2.312 28.239c.126 1.538-.385 1.447 2.724 1.447l-1.586-19.375-3.875-47.325-4.835-59.071-4.471-54.616-2.78-33.957c-1.853-22.635-3.649-45.275-6.557-67.874a489.45 489.45 0 0 0-10.714-58.127c-4.952-19.517-11.878-38.819-19.626-58.022-7.732-19.163-16.137-38.233-23.573-57.436-7.4-19.1-13.357-38.347-18.863-57.654-1.349-4.731-2.512-9.491-4.136-14.192-1.61-4.661-3.6-9.3-4.132-14.062a87.265 87.265 0 0 1-.227-11.8c.233-9.337 1.11-18.668 2.194-27.984 2.68-23 6.711-45.954 11.115-68.866 4.229-22.01 8.9-43.991 13.846-65.951q4.385-19.459 9.095-38.9.326-1.335.654-2.668c.554-2.238-.06-4.766-.1-7.029-.079-4.838-.126-9.676-.074-14.513.21-19.472 2.535-38.787 9.4-57.88 13.636-37.907 40.044-73.848 52.827-111.877 12.831-38.171 11.113-77.3 8.083-115.954q-.561-7.143-1.157-14.285-.2-2.489-.407-4.977c-.122-1.493 0-1.311-2.713-1.311 2.677 32.7 5.962 65.514 2.031 98.229a198.394 198.394 0 0 1-16.092 57.5c-8.4 18.8-19.058 37.232-28.666 55.834-9.584 18.555-18.177 37.375-22.28 56.631-4.123 19.357-3.835 38.906-3.455 58.373.051 2.579-.968 5.186-1.584 7.735q-2.211 9.157-4.339 18.323-6.95 29.871-13.136 59.8c-4.831 23.484-9.3 47-12.836 70.561-2.848 18.976-5.651 38.119-5.046 57.184q.048 1.357.126 2.693z" class="cls-5"/>
                        <path id="Path_2173" d="M2425.048 3609.634c21.7 35.9 26.812 73.994 30 111.708 1.6 18.911 2.819 37.839 5.636 56.707 1.411 9.448 2.943 18.969 5.706 28.322 2.694 9.118 8.43 17.8 14.024 26.426a484.983 484.983 0 0 1 30.51 54.964 400.549 400.549 0 0 1 22.076 56.732c11.633 38.471 15.568 77.422 18.651 116.381q.849 10.725 1.681 21.45l3.167 40.475 4.346 55.535 4.668 59.642 4.131 52.8 2.739 35 .529 6.756.095 1.223q.214 2.721.425 5.444.257 3.3.51 6.6c.033.425-.328 1.8.547 1.8h2.2q-1.028-13.329-2.077-26.658l-3.069-39.224-4.3-54.942-4.673-59.707-4.188-53.519-2.846-36.376c-1-12.833-1.97-25.668-3.142-38.5-3.57-39.055-10.019-77.893-24.12-116.193a425.377 425.377 0 0 0-25.71-56.34c-5.02-9.222-10.031-18.48-15.693-27.577-5.414-8.7-11.653-17.261-15.573-26.246-3.977-9.113-5.337-18.691-6.927-28.025-1.61-9.447-2.769-18.918-3.72-28.394-1.891-18.852-2.95-37.731-5.154-56.573-2.193-18.761-5.547-37.513-11.963-55.963a181.485 181.485 0 0 0-12.233-27.63c-4.993-9.118-10.765-18.1-16.166-27.139-21.612-36.172-42.205-72.706-55.069-110.3-6.357-18.582-10.784-37.407-12.336-56.337-1.6-19.5.342-38.973 4.065-58.359 4.017-20.915 9.615-41.734 14.773-62.564l9.691-39.138c-1.6 0-2.541-.37-2.762.524q-.309 1.251-.62 2.5l-2.431 9.818-7.059 28.511c-5.4 21.809-11.31 43.606-15.166 65.526-3.409 19.382-4.723 38.827-2.613 58.284 2.052 18.928 6.889 37.73 13.574 56.289 13.511 37.507 34.411 73.954 56.1 110.1q4.863 8.1 9.766 16.2z" class="cls-5"/>
                        <path id="Path_2174" d="M2483.257 4110.638a412.938 412.938 0 0 1 4.954 52.377 287.863 287.863 0 0 1-3.945 52.174c-3.153 19.513-7.64 38.941-11.386 58.417a400.205 400.205 0 0 0-7.225 59.068c-.206 4.971-.331 9.943-.4 14.915h2.2c.844 0 .436-1.908.445-2.379q.069-3.87.189-7.739.234-7.444.712-14.883.973-14.769 3.274-29.491c3.018-19.421 7.446-38.754 11.239-58.127 3.677-18.774 6.725-37.6 7.4-56.5a323.478 323.478 0 0 0-2.223-48.116c-2.014-17.715-4.789-35.367-6.238-53.1-1.506-18.433-2.533-36.879-3.406-55.325-1.05-22.209-1.839-44.423-2.5-66.638q-1.08-36.249-1.748-72.5-.705-36.457-1.147-72.915-.427-33.937-.7-67.877-.237-28.695-.4-57.39-.125-20.726-.253-41.452-.06-8.19-.16-16.381-.153-12.794-.308-25.586l-.53-43.95-.667-55.376-.722-59.867-.692-57.422-.579-48.041-.383-31.725c-.124-10.312-.276-20.624-.279-30.936q0-5.991.077-11.981h-2.2c-.848 0-.432 1.928-.437 2.4q-.042 3.894-.046 7.79-.012 7.449.071 14.9.045 4.65.1 9.3.034 2.9.07 5.794l.348 28.886.556 46.175q.342 28.263.682 56.527l.722 59.942.68 56.422.555 45.967.344 28.575q.087 7.184.153 14.369.159 19.38.247 38.761.164 27.732.373 55.463.261 33.357.649 66.716.431 36.261 1.077 72.522.664 36.441 1.655 72.88c.633 22.6 1.387 45.2 2.384 67.792.842 19.089 1.835 38.178 3.262 57.255 1.006 13.448 2.133 26.907 4.147 40.319 4.484 29.776-13.348-88.939.009-.009z" class="cls-5"/>
                        <path id="Path_2175" d="M2286.288 3804.736c24.412 34.615 42.521 70.791 52.218 107.777a231.538 231.538 0 0 1 1.664 112.54c-4.543 19.478-10.925 38.788-16.785 58.142q-8.843 29.2-15.848 58.574a1126.155 1126.155 0 0 0-21.483 118.067c-3.764 29.216-6.464 58.476-8.263 87.753h2.2c.851 0 .525-1.9.555-2.37q.243-3.854.508-7.705.509-7.408 1.1-14.815 1.178-14.818 2.684-29.625 3.021-29.618 7.463-59.178a1087.909 1087.909 0 0 1 24.34-117.725c5.181-19.44 11.257-38.784 17.125-58.156 5.838-19.276 11.184-38.638 13.642-58.17 4.7-37.312-.5-74.924-13.715-111.515a330.029 330.029 0 0 0-25.562-54.107q-7.768-13.312-16.817-26.36c-5.494-7.932-10-15.867-12.385-24.324-9.334-33.082 7.239-66.09 14.935-98.676a112.093 112.093 0 0 0 3.33-23.123c.2-8.742-1.338-17.5-2.285-26.218q-3.167-29.143-5.934-58.3c-3.707-39.375-6.746-78.774-8.756-118.191-2.034-39.862-3.017-79.744-2.576-119.623q.429-38.77 2.759-77.525h-2.2c-.853 0-.525 1.927-.553 2.4q-.234 3.9-.446 7.808-.406 7.506-.738 15.014-.663 15-1.031 30.014-.739 29.964-.4 59.932c.417 39.716 2.128 79.426 4.766 119.114 2.6 39.162 6.112 78.3 10.17 117.423q1.5 14.5 3.1 28.994c.907 8.236 1.952 16.409 1.207 24.664-1.45 16.064-6.913 31.913-11.659 47.728-8.881 29.577-16.539 61.108 3.67 89.762z" class="cls-5"/>
                        <path id="Path_2176" d="M2258.289 3998.55c-.458 19.5-6.965 38.75-14.42 57.7-7.522 19.127-15.378 38.2-22.16 57.42a978.824 978.824 0 0 0-33.01 116.28 1105.793 1105.793 0 0 0-18.972 117.05l-.063.587h2.2c.857 0 .613-1.874.665-2.349q.423-3.817.869-7.632.858-7.337 1.81-14.671 1.9-14.668 4.192-29.318 4.584-29.307 10.809-58.518a981.172 981.172 0 0 1 32.4-116.419c6.688-19.28 14.322-38.424 22-57.578 7.625-19.024 14.653-38.273 16.055-57.843 1.325-18.5-3.031-36.9-8.84-55.043a453.5 453.5 0 0 0-22.205-55.449c-8.569-18.129-17.544-36.221-23.9-54.666a169.518 169.518 0 0 1-9.036-56.584c.182-38.946 10.8-77.624 25.557-115.538 7.421-19.066 15.9-37.991 24.8-56.843 8.822-18.687 18.793-37.223 25.314-56.244 6.6-19.262 8.231-38.753 7.6-58.35-.62-19.386-2.381-38.774-3.853-58.144-2.982-39.271-6.663-78.545-13.451-117.666q-2.664-15.351-6.012-30.658-1.7-7.741-3.553-15.471-.928-3.873-1.892-7.743c-.082-.327-.559-2.978-.86-2.978h-2.521a850.382 850.382 0 0 1 20.592 117.621c2.106 19.564 3.75 39.143 5.227 58.726 1.458 19.339 3.257 38.7 3.768 58.055.517 19.582-1.442 39-8.271 58.219-6.781 19.084-16.85 37.7-25.666 56.489-17.666 37.646-33.787 75.665-42.607 114.386-8.642 37.935-10.538 76.664 2.735 114.309 6.486 18.394 15.489 36.443 24.024 54.542a444.855 444.855 0 0 1 21.993 55.352c5.116 16.152 9.06 32.51 8.673 48.967-.548 23.697.52-21.519.009.002z" class="cls-5"/>
                        <path id="Path_2177" d="M2016.124 4347.589h2.611c-4.825-39.827-7.352-79.771-6.066-119.7.553-17.2 1.733-34.407 4.771-51.523 3.185-17.95 8.89-35.676 15.56-53.292 7.248-19.142 15.511-38.16 21.953-57.4a325.886 325.886 0 0 0 13.49-57.267c5.543-38.61 4.488-77.459-.424-116.071-2.47-19.414-5.918-38.785-10.028-58.1-4.04-18.99-9.344-37.892-12.029-56.971-5.294-37.629-2.947-75.536 4.845-112.993 7.837-37.673 21.149-74.924 38.077-111.568 8.557-18.523 18.263-36.834 28.216-55.119 10.075-18.509 19.578-37.15 24.362-56.4 4.724-19.008 5.649-38.252 5.574-57.43-.079-19.839-.848-39.682-1.77-59.513q-.78-16.785-1.853-33.564-.537-8.4-1.146-16.794-.3-4.2-.626-8.4c-.029-.374-.151-3.6-.392-3.6h-2.5c3.131 39.831 5.346 79.723 5.665 119.6.154 19.262-.593 38.592-5.1 57.7-4.534 19.222-13.786 37.833-23.807 56.3-19.757 36.409-37.892 73-50.992 110.433-12.989 37.112-21.559 74.805-23.605 112.672a303.571 303.571 0 0 0 2.08 56.432c2.533 19.072 7.766 37.949 11.86 56.918 8.335 38.613 14.1 77.465 14.663 116.4.556 38.621-4.078 77.347-16.548 115.324-12.2 37.148-30.966 73.51-37.876 111.214-3.116 17-4.368 34.1-4.967 51.193-.7 19.942-.441 39.893.583 59.829 1.059 20.581 2.932 41.149 5.419 61.69z" class="cls-5"/>
                        <path id="Path_2178" d="M2053.012 3460.041c8.477 38.672 17.748 77.284 26.9 115.9 9.258 39.069 18.4 78.149 26.544 117.3 4.067 19.564 7.884 39.146 11.333 58.749 3.425 19.463 5.886 38.973 9.166 58.441 3.216 19.093 9.192 37.977 13.727 56.97a231.342 231.342 0 0 1 5.241 28.769 183.591 183.591 0 0 1 .483 29.331c-1.8 34.413-9.963 68.568-18.09 102.632l-8.178 34.282-13.8 57.858-9.6 40.252c-6.836 28.655-13.614 57.333-23.022 85.751-11.292 34.109-28.827 67.342-41.161 101.308h2.245c.9 0 1.09-1.834 1.273-2.326q1.407-3.779 2.9-7.548c1.906-4.824 3.9-9.636 5.955-14.44 4.055-9.5 8.321-18.972 12.483-28.458a552.97 552.97 0 0 0 21.815-57.447c8.091-25.963 14.241-52.108 20.474-78.236q5.151-21.587 10.3-43.177l13.714-57.487 7.3-30.616c8.847-37.081 17.715-74.307 18.325-111.8.63-38.7-15.721-76.41-21.081-114.827-5.476-39.245-12.838-78.4-21.126-117.472-8.3-39.148-17.543-78.226-26.825-117.3-9.174-38.622-18.285-77.248-26.754-115.925-8.591-39.232-17.061-78.477-24.071-117.816q-3.336-18.715-6.188-37.458-1.44-9.528-2.726-19.063-.642-4.767-1.242-9.537-.3-2.385-.589-4.77a12.927 12.927 0 0 0-2.611 0c4.809 39.73 11.914 79.354 19.945 118.906 5.368 26.437 11.153 52.844 16.943 79.251 24.732 112.839-14.267-65.06-.002.003z" class="cls-5"/>
                        <path id="Path_2179" d="M2031.409 4108.69c-.587 39.226-.943 78.519 6.873 117.546 7.8 38.955 20.862 77.457 25.172 116.648q.258 2.353.489 4.705a12.959 12.959 0 0 0 2.609 0 419.007 419.007 0 0 0-10.4-58.75c-4.738-19.358-10.188-38.659-14.306-58.067-8.276-38.992-8.471-78.218-7.9-117.442.064-4.429-.057-8.844-.188-13.273l-.755-25.52-1.166-39.493q-.746-25.273-1.489-50.546-.863-29.34-1.723-58.68-.936-31.949-1.868-63.9-.966-33.1-1.925-66.192-.951-32.785-1.894-65.571-.892-31.014-1.775-62.029-.789-27.783-1.566-55.568-.643-23.1-1.269-46.189-.458-16.946-.884-33.891c-.763-30.842-1.487-61.685-1.718-92.529-.281-37.535-.648-75.2 4.066-112.656a299.167 299.167 0 0 1 15.42-65.412h-2.246c-.9 0-1.06 1.786-1.234 2.274-.877 2.461-1.727 4.926-2.531 7.4q-2.319 7.119-4.182 14.284c-2.5 9.537-4.466 19.12-6.017 28.724a462.177 462.177 0 0 0-5.185 56.194c-1.462 38.377-.8 76.79-.03 115.17q.579 28.992 1.341 57.983.5 19.485 1.043 38.97.685 25.073 1.394 50.144.82 29.2 1.656 58.4.911 31.866 1.831 63.734.955 33.075 1.917 66.151.954 32.826 1.914 65.65.909 31.116 1.823 62.23.819 27.945 1.643 55.891l1.375 46.632q.508 17.229 1.019 34.457.285 9.679.573 19.361.045 1.578.093 3.16z" class="cls-5"/>
                        <path id="Path_2180" d="M2033.975 3642.625c1.842 33.666 27.664 65.114 47.61 96.148 9.986 15.537 19.185 31.4 23.636 47.825 2.279 8.408 2.671 16.777 2.74 25.272q.12 14.872.02 29.745c-.236 39.72-1.4 79.436-1.952 119.154-.557 39.619-.52 79.249 1.66 118.852 1.084 19.706 2.7 39.4 5.046 59.072 2.337 19.6 5.575 39.154 8.487 58.724 5.9 39.624 11.077 79.275 14.831 118.987q.851 8.993 1.618 17.987.384 4.5.747 9 .17 2.1.335 4.2a12.952 12.952 0 0 0 2.608 0q-4.7-59.811-13.085-119.5c-5.487-39.272-12.458-78.478-15.838-117.839-3.393-39.506-4.236-79.07-4.092-118.62.145-39.7 1.289-79.4 1.908-119.1.31-19.828.488-39.656.344-59.484-.063-8.547-.293-16.987-2.479-25.457a120.1 120.1 0 0 0-9.308-23.835c-16.324-32.376-43.828-62.666-56.422-95.706-6.682-17.532-6.565-35.387-6.466-53.258.11-19.777 1.374-39.547 3.336-59.29 3.894-39.192 10.56-78.265 16.557-117.361 6.029-39.3 11.363-78.675 12.512-118.14.305-10.485.314-20.972-.042-31.456q-.261-7.71-.794-15.414-.268-3.85-.609-7.7c-.033-.37-.189-3.551-.443-3.551h-2.5c3.88 39.594 1.714 79.3-2.834 118.845-4.5 39.154-11.385 78.2-17.162 117.291-5.8 39.265-10.515 78.63-10.635 118.057q-.04 13.277.663 26.548c2.978 54.386-3.311-60.641.003.004z" class="cls-5"/>
                        <path id="Path_2181" d="M2211.079 3804.736c.675 39.629-.366 79.264.921 118.889.643 19.787 1.866 39.571 4.18 59.317 2.309 19.712 6.2 39.314 10.055 58.939 3.848 19.571 7.4 39.192 8.286 58.894.88 19.6-1.221 39.2-4.647 58.692-6.825 38.842-16.921 77.521-26.667 116.146-6.054 23.991-12.219 47.973-18.127 71.976h2.22c.88 0 .877-1.893 1-2.38q.954-3.864 1.916-7.728 1.845-7.414 3.714-14.829 3.7-14.711 7.451-29.421c4.942-19.477 9.868-38.956 14.585-58.453 4.681-19.35 9.21-38.716 13.22-58.117 3.985-19.285 7.217-38.644 7.979-58.071 1.554-39.643-10-78.74-16.011-118.1-6.038-39.535-7.074-79.254-7.219-118.921-.143-39.431.487-78.86-1.863-118.275-2.332-39.12-6.766-78.187-11.925-117.213-5.188-39.247-11.114-78.459-16.441-117.7-5.33-39.271-10.066-78.577-12.858-117.938-2.786-39.284-3.632-78.63-1.177-117.928q.957-15.322 2.606-30.628h-2.2c-.859 0-.609 1.88-.659 2.355q-.4 3.828-.757 7.657-.683 7.36-1.2 14.727-1.044 14.728-1.48 29.467c-.594 19.655-.431 39.316.319 58.969 1.5 39.367 5.355 78.691 10.2 117.963 4.851 39.29 10.7 78.535 16.214 117.795 5.49 39.093 10.654 78.207 14.129 117.379 2.257 25.491 3.802 51.01 4.236 76.537z" class="cls-5"/>
                        <path id="Path_2182" d="M2200.7 4196.621c13.3 38.86 26.586 77.73 37.852 116.808q2.8 9.71 5.422 19.437 1.267 4.709 2.488 9.424.609 2.355 1.206 4.71c.231.913 1.336.589 2.783.589-9.905-39.248-22.451-78.254-35.585-117.177-12.991-38.5-26.443-76.936-37.96-115.592-11.533-38.71-21.389-77.6-28.033-116.7-6.619-38.949-10.041-78.112-8.659-117.252a448.855 448.855 0 0 1 5.854-58.582c3.287-19.565 7.794-39.036 10.462-58.641a593.985 593.985 0 0 0 4.144-117.682c-1.229-19.492-3.6-38.953-5.415-58.429-1.845-19.764-3.39-39.541-4.11-59.331-1.44-39.552 1.176-79.094 6.617-118.523 5.445-39.453 13.564-78.765 22.761-117.979q3.5-14.915 7.18-29.814h-2.22c-.879 0-.866 1.849-.985 2.332q-.93 3.794-1.852 7.587-1.775 7.308-3.508 14.619-3.472 14.659-6.732 29.335c-4.342 19.63-8.333 39.288-11.775 58.978-6.884 39.39-11.579 78.934-12.4 118.53-.814 39.526 2.776 79.013 6.788 118.456 3.972 39.056 5.5 78.078 2.541 117.18a579.21 579.21 0 0 1-7.484 58.865c-3.514 19.531-7.82 38.968-10 58.575-4.336 39.081-3.419 78.317 1.178 117.375 4.613 39.19 12.911 78.212 23.322 117.021 10.407 38.791 22.93 77.38 36.11 115.884z" class="cls-5"/>
                        <path id="Path_2183" d="M2339.043 3804.736c-.051 8.35 1.282 16.708 2.822 25 2 10.78 4.6 21.522 7.425 32.238 6.092 23.092 13.3 46.084 20.937 69.02q7.749 23.272 16.184 46.466c2.3 6.3 3.92 12.652 5.672 19.017 5.338 19.4 10.555 38.817 15.19 58.28 9.333 39.191 16.352 78.649 17.1 118.238.742 39.389-4.705 78.691-9.225 117.961-2.172 18.864-4.024 37.736-5.214 56.63h2.2c.851 0 .529-1.893.559-2.366q.252-3.842.533-7.683.54-7.374 1.2-14.745c.879-9.8 1.935-19.6 3.053-29.4 2.231-19.533 4.72-39.057 6.6-58.6a550.285 550.285 0 0 0 2.941-59.444 441.641 441.641 0 0 0-4.994-59.177c-5.812-39.236-15.911-78.2-26.58-117.08-1.953-7.117-3.673-14.25-6.247-21.3q-3.227-8.835-6.333-17.683c-7.2-20.457-14.05-40.958-20.375-61.511-6.91-22.454-13.437-45-17.75-67.673-1.6-8.422-2.993-16.9-3.052-25.384-.127-18.331 1.937-36.693 5.029-54.929 6.417-37.849 17.98-75.322 29.639-112.724 11.626-37.3 23.463-74.629 30.439-112.337a343.662 343.662 0 0 0 6.033-55.89c.372-19.326-.931-38.68-1.47-58-1.107-39.625-1.682-79.263-.308-118.888q.536-15.447 1.5-30.888h-2.2c-.853 0-.526 1.9-.554 2.372q-.234 3.858-.439 7.717-.394 7.428-.688 14.858-.591 14.883-.823 29.77c-.324 19.844-.232 39.689.1 59.532.329 19.708.894 39.415 1.524 59.12.6 18.947 1.254 37.837-.523 56.772-3.537 37.67-13.549 75.018-24.767 112.142-11.335 37.515-24 74.911-33.08 112.642-7.019 29.133-11.877 58.491-12.058 87.927z" class="cls-5"/>
                        <path id="Path_2184" d="M2425.43 4168.246c-14.836 38.187-26.145 76.672-35.928 115.392-5.018 19.858-9.879 39.729-14.8 59.595l-1.078 4.356c2.222 0 2.553.32 2.836-.823l.928-3.748 3.228-13.034q2.648-10.7 5.3-21.393c9.328-37.671 18.667-75.372 31.8-112.675 6.737-19.135 14.879-38.1 21.388-57.259 6.592-19.408 10.779-38.932 11.6-58.717.817-19.634-.971-39.268-3.361-58.848-.592-4.844-1.22-9.687-1.856-14.53a15.462 15.462 0 0 1-.37-3.021l.1-1.44q.723-10.109 1.5-20.216 1.5-19.737 3.1-39.472 2.172-26.782 4.524-53.56 2.747-31.242 5.767-62.477 3.215-33.122 6.83-66.227 3.565-32.415 7.712-64.808c2.52-19.419 5.243-38.831 8.415-58.218 2.539-15.512 5.306-31.02 8.937-46.461 1.352-5.751 2.825-11.494 4.608-17.206 3.028-9.7 7.463-19.235 11.993-28.732 9.011-18.893 19.137-37.625 26.4-56.782a197.765 197.765 0 0 0 12.069-57.663c1.283-19.55.4-39.121-.715-58.666q-1.707-29.969-4.381-59.914-1.2-13.5-2.6-27-.712-6.9-1.476-13.807-.366-3.3-.742-6.6c-.055-.479.176-2.4-.683-2.4h-2.2c4.6 39.906 8.03 79.866 10.02 119.845.967 19.416 1.395 38.869-.661 58.268a198.731 198.731 0 0 1-15.123 57.39c-11.153 26.112-27.322 51.635-35.19 78.191a395.114 395.114 0 0 0-9.12 40.025c-3.349 17.954-6.118 35.944-8.667 53.941-2.958 20.885-5.585 41.786-8.036 62.693q-3.884 33.132-7.226 66.283-3.3 32.35-6.236 64.712-2.648 28.984-5.069 57.977-1.927 23.039-3.722 46.081-1.13 14.509-2.2 29.022-.238 3.25-.47 6.5l-.069.966a21.1 21.1 0 0 0 .53 4.049q.492 3.765.974 7.53c.618 4.854 1.21 9.708 1.747 14.565 2.162 19.558 3.433 39.184 1.789 58.773-1.655 19.7-7.064 39.1-14.075 58.382-2.571 7.07-5.308 14.12-8.046 21.169-2.381 6.133 7.702-19.823.005-.008z" class="cls-5"/>
                        <path id="Path_2185" d="M2512.682 3584.892c11.618 38.46 11.461 77.753 5.994 116.563-5.519 39.179-16.97 77.875-26.1 116.792a623.255 623.255 0 0 0-15.94 118.067 679.646 679.646 0 0 0 5.945 118.633c5.419 39.731 15.376 79.129 23.608 118.68q12.361 59.383 20.952 119 2.155 14.925 4.075 29.863.96 7.467 1.862 14.937.432 3.584.851 7.17c.038.322.214 2.988.46 2.988h2.5q-6.876-59.632-17.476-119.094-5.287-29.648-11.512-59.234c-4.165-19.8-8.9-39.547-13.1-59.338a725.939 725.939 0 0 1-15.381-118.64 640.115 640.115 0 0 1 5.562-118.333q4.182-29.5 11.279-58.83c4.721-19.452 10.1-38.847 14.639-58.314 9.052-38.786 15.762-77.929 13.63-117.114a241.746 241.746 0 0 0-10.513-58.1c-5.914-19.227-12.473-38.4-16.989-57.758-4.5-19.305-6.952-38.839-4.581-58.306 2.28-18.723 8.676-37.2 17.29-55.277 17.458-36.626 43.8-71.524 65.663-107.284a385.2 385.2 0 0 0 21.77-40.078h-2.27c-.918 0-1.237 1.757-1.469 2.249q-1.723 3.656-3.565 7.292-3.542 7-7.456 13.943c-5.2 9.252-10.812 18.423-16.621 27.551-11.336 17.814-23.427 35.465-34.623 53.309-22.147 35.3-41.025 71.909-42.2 109.744-1.136 36.774 12.83 72.9 23.715 108.92 21.919 72.555-1.802-5.968.001-.001z" class="cls-5"/>
                        <path id="Path_2186" d="M2556.843 4058.729c13.638 38.317 29.544 76.372 41 114.94 11.333 38.143 18.4 77 13.624 115.713a196.634 196.634 0 0 1-17 58.207h2.271c.925 0 1.229-1.779 1.45-2.274q1.653-3.694 3.17-7.409c1.937-4.753 3.7-9.53 5.238-14.332a184.824 184.824 0 0 0 6.736-28.766 220.05 220.05 0 0 0 .671-57.836c-4.385-38.917-17.129-77.323-31.16-115.4-7.05-19.135-14.458-38.226-21.389-57.376a240 240 0 0 1-13.008-53c-4.507-37.391-.5-75 7.253-112.161 4.058-19.446 9.2-38.814 14.981-58.112 5.692-18.988 13.318-37.873 17.02-57.036 7.16-37.061 1.535-74.444-5.581-111.353-7.182-37.254-16.166-74.545-16.066-112.1.051-19.346 2.8-38.7 5.047-57.992 2.276-19.544 4.7-39.084 6.667-58.64a813.191 813.191 0 0 0 3.024-118.746c-.518-11.26-1.192-22.518-1.957-33.773q-.58-8.541-1.22-17.082-.306-4.107-.621-8.213-.156-2.049-.315-4.1a12.928 12.928 0 0 0-2.6 0c3.044 39.452 5.733 78.937 5.076 118.437-.656 39.373-5.561 78.64-10.169 117.907-2.274 19.379-5.089 38.821-5.49 58.25-.387 18.728 1.59 37.445 4.533 56.088 5.914 37.472 15.8 74.741 18.981 112.351 1.566 18.524 1.47 37.129-1.691 55.6-3.28 19.169-10.74 38.012-16.445 56.969-11.494 38.185-20.709 76.7-23.813 115.45-2.831 35.338-.589 71.07 11.779 105.795 4.577 12.844-27.364-76.847.004-.006z" class="cls-5"/>
                        <path id="Path_2187" d="M2683.382 4347.589h2.226c.873 0 .891-1.772 1.021-2.25.676-2.5 1.268-5 1.865-7.507q1.733-7.258 3.235-14.534 3.011-14.555 5.168-29.167c2.9-19.5 4.745-39.047 5.788-58.607 2.083-39.108.967-78.247-1.385-117.342-2.339-38.9-6.357-77.755-8.006-116.665-1.679-39.591-1.594-79.2-1.039-118.8.278-19.855.677-39.709 1.042-59.563.351-19.09.836-38.07 4.35-57.074 7.038-38.065 22.119-75.471 39.059-112.419 8.527-18.6 17.575-37.116 26.477-55.655 8.957-18.656 17.515-37.338 27.944-55.745 20.549-36.263 44.923-72.439 51.758-110.679a104.169 104.169 0 0 0-5.468-56.438c-7.05-18.422-18.264-36.187-29.473-53.868-6.664-10.511-13.342-21.024-19.2-31.7-2.865-5.22-5.512-10.478-7.9-15.777q-1.783-3.955-3.39-7.935-.8-1.989-1.567-3.984a13.249 13.249 0 0 0-2.665 0c7.23 19.007 18 37.349 29.546 55.6 11.235 17.756 22.793 35.512 30.477 53.921 7.722 18.5 10.433 37.326 7.65 56.3s-10.239 37.592-19.429 55.83c-9.313 18.483-20.453 36.633-30.905 54.9-10.565 18.468-19.353 37.174-28.327 55.913-17.794 37.157-36.363 74.234-50.254 111.965a372.721 372.721 0 0 0-16.3 56.339c-3.743 18.958-4.582 37.877-4.927 56.938-.717 39.72-1.611 79.441-1.433 119.164q.264 58.959 4.927 117.83c3.1 38.86 5.985 77.736 6.741 116.639.76 39.106-.624 78.258-6.17 117.246a510.01 510.01 0 0 1-11.436 57.124z" class="cls-5"/>
                        <path id="Path_2188" d="M2775.133 3804.736c1.4 39.482-2.079 78.946-5.683 118.36-3.575 39.094-7.3 78.229-6.3 117.4a388.3 388.3 0 0 0 5.6 58.207c3.488 19.6 9.046 39.081 13.986 58.575 9.907 39.093 19.478 78.241 25.523 117.608 1.965 12.793 3.555 25.607 4.654 38.435q.834 9.749 1.275 19.507.21 4.725.318 9.452.054 2.361.081 4.724c.011.934 1.191.59 2.615.59-.4-39.572-6.436-79.053-14.733-118.309-4.148-19.626-8.868-39.209-13.764-58.776s-10.365-39.094-14.716-58.7c-8.59-38.7-9.49-77.816-7.562-116.772 1.947-39.348 6.734-78.624 9.543-117.951 2.751-38.532 3.868-77.137-2.983-115.551-6.615-37.086-18.346-73.776-26.963-110.708-8.658-37.108-14.112-74.689-8.329-112.095 6.023-38.951 24.74-76.754 41.742-114.453 8.62-19.115 16.9-38.3 23.053-57.744a311.566 311.566 0 0 0 12.4-58.608q1.455-12.663 1.981-25.355.264-6.2.327-12.406.035-3.252.016-6.5c0-.419.452-1.774-.422-1.774h-2.2c.393 39.313-5.055 78.628-19.011 117.14-13.893 38.338-34.5 75.738-48.318 114.085-6.814 18.905-11.8 37.991-13.631 57.285a251.167 251.167 0 0 0 1.462 56.151c4.836 37.214 16.013 74 25.382 110.891 7.352 28.923 13.619 58.024 14.657 87.292z" class="cls-5"/>
                        <path id="Path_2189" d="M2948.709 3621.4c2.6 6.049 2.938 12.568 3.725 18.754 1.531 12.045 2.482 24.115 3.314 36.182 1.154 16.738 1.975 33.484 2.632 50.231q1.193 30.446 1.676 60.9.581 34.092.449 68.188-.13 36.049-1.053 72.1-.942 36.318-2.825 72.626c-1.233 23.267-2.8 46.529-4.872 69.776-1.888 21.2-4.18 42.39-7.192 63.546-2.564 18.016-5.613 36.019-9.783 53.936-5.091 21.883-13.123 43.4-21.085 64.988-11.632 31.534-23.438 63.074-31.782 94.968h2.223c.882 0 .905-1.868 1.036-2.354q1.023-3.825 2.109-7.643 2.087-7.343 4.378-14.664c3.038-9.739 6.313-19.452 9.72-29.15 6.757-19.232 14.038-38.4 21.006-57.606 6.665-18.375 12.516-36.7 16.537-55.329 3.982-18.456 6.922-36.986 9.388-55.529 2.864-21.528 5.047-43.085 6.838-64.652 1.947-23.456 3.416-46.926 4.558-70.4q1.77-36.379 2.553-72.773.809-35.885.819-71.771.021-33.7-.641-67.4-.6-29.823-1.83-59.641c-.69-16.176-1.542-32.349-2.745-48.515-.843-11.343-1.79-22.693-3.387-34.011-.5-3.51-1.041-7.022-1.849-10.513-1.559-6.729-5.123-13.275-7.943-19.847-16.268-37.9-32.164-75.885-44.894-114.249-12.707-38.293-22.27-77.007-25.575-115.98-3.23-38.083.456-76 10.334-113.683h-2.223c-.884 0-.9 1.861-1.019 2.346q-.978 3.814-1.885 7.634-1.743 7.34-3.2 14.7c-1.922 9.772-3.412 19.572-4.384 29.391a325.017 325.017 0 0 0-.34 58.35c3.16 38.962 12.6 77.673 25.213 115.963 12.637 38.353 28.473 76.32 44.721 114.206q3.628 8.461 7.276 16.922c13.693 31.792-43.881-101.907.002.003z" class="cls-5"/>
                        <path id="Path_2190" d="M2590.556 3364.806c9.011 35.175 31.92 68.425 53.356 101.537 23.317 36.018 45.728 72.42 59.736 110.088 6.765 18.189 12.185 36.745 12.341 55.394.152 18.223-4.014 36.364-10 54.225-12.121 36.164-31.787 71.413-40.987 107.915-5.656 22.442-5.182 45.338-5.433 67.97-.3 26.874-.9 53.976-8.65 80.536-5.629 19.277-16.2 37.859-25.487 56.609-9.309 18.785-15.891 37.747-19.31 57.195-3.578 20.359-4.517 40.827-5.643 61.268l-1.862 33.8-2.96 53.726-3.283 59.593-2.831 51.407q-.8 14.582-1.607 29.165l-.13 2.352c2.574 0 2.59.316 2.657-.885l.178-3.239q.351-6.379.7-12.76l2.451-44.5 3.2-58.094q1.589-28.818 3.176-57.637l2.375-43.129c.493-8.933.957-17.867 1.5-26.8 1.17-19.27 2.859-38.568 7.485-57.679 4.694-19.4 13.643-38.093 23.236-56.836 9.621-18.8 18.178-37.585 22.091-57.1a244.48 244.48 0 0 0 3.823-28.927c.665-8.431 1.433-16.916 1.421-25.356-.026-18.26.215-36.541 1.479-54.787 2.182-31.493 15.844-62.095 28.8-92.567 15.015-35.319 29.914-71.529 25.388-108.174-2.311-18.721-8.887-37.4-16.579-55.6-7.847-18.571-17.566-36.862-28.206-54.957-9.869-16.782-20.54-33.4-31.334-49.99-11-16.905-22.036-33.819-31.178-51.1-9.707-18.351-17.017-37.073-20.092-56.2-3.11-19.342-2.648-38.8-1.667-58.2.526-10.4 1.131-20.792 1.7-31.187-.414 0-2.6-.126-2.612.087l-.075 1.359-.322 5.844-.713 12.931c-.929 16.862-1.891 33.74-.9 50.61a168.438 168.438 0 0 0 4.769 32.091c8.243 32.196-6.933-27.049-.001.002z" class="cls-5"/>
                        <path id="Path_2191" d="M3041.951 4228.849c6.436 38.313 36.762 73.258 56.142 109.617q1.811 3.4 3.486 6.815c.244.5.6 2.308 1.533 2.308h2.284c-17.4-36.815-48.4-71.394-58.739-109.328-10.364-38.021 5.407-75.894 25.355-111.967 10.217-18.477 21.563-36.74 31.512-55.267 9.919-18.471 17.9-37.189 23.09-56.3 10.251-37.715 11.169-76.013 10.112-114.107-1.063-38.293-3.486-76.528-1.984-114.831 1.553-39.6 5.2-79.158 7.5-118.744 2.278-39.2 2.6-78.328-.525-117.517-3.1-38.882-6.039-77.778-6.873-116.7-.839-39.139.433-78.325 5.834-117.354a514.611 514.611 0 0 1 10.249-53.583h-2.227c-.88 0-.863 1.839-.98 2.321q-.917 3.772-1.768 7.552-1.641 7.266-3.058 14.55-2.838 14.571-4.841 29.193c-2.695 19.513-4.359 39.072-5.245 58.64-1.772 39.107-.445 78.237 2.023 117.324 2.453 38.851 6.88 77.669 6.8 116.559-.082 39.5-3.251 78.97-6.028 118.43-2.745 38.991-4.918 77.968-3.66 116.994 1.232 38.183 4.135 76.391 1.345 114.574a296.476 296.476 0 0 1-9.362 56.876c-5.227 19.1-13.261 37.8-23.2 56.259-19.738 36.642-45.229 72.57-55.617 110.668-4.235 15.533-5.791 31.351-3.158 47.025 4.395 26.158-7.326-43.617 0-.007z" class="cls-5"/>
                        <path id="Path_2192" d="M3210.461 3614.426c6.033 19.474 13.91 38.736 21.944 57.96 1.626 3.891 2.983 7.323 3.455 11.262 1.19 9.918 1.452 19.884 1.81 29.821.574 15.93.88 31.863 1.122 47.8q.444 29.178.577 58.358.177 30.754.174 61.51.011 28.625-.083 57.248-.07 22.788-.2 45.576-.074 13.245-.169 26.49c-.149 20.289.966 40.564-2.969 60.775-7.5 38.539-33.108 74.728-50.172 111.978a201.854 201.854 0 0 0-16.977 57.443c-2.589 19.35-2.549 38.783-1.539 58.171.606 11.637 1.565 23.265 2.517 34.893q.375 4.57.748 9.141l.328 4c.089 1.084.751.736 2.668.736-2.389-29.188-5.436-58.42-3.885-87.65 1.028-19.367 4.172-38.727 10.985-57.716 6.865-19.134 17.014-37.8 27.007-56.445 9.89-18.454 19.668-36.981 26.005-55.974 6.412-19.215 8.075-38.68 8.084-58.213 0-9.186-.212-18.367-.152-27.553q.111-16.884.187-33.769.117-25.163.165-50.326.055-29.747 0-59.492-.064-30.633-.306-61.266c-.158-18.55-.377-37.1-.754-55.648-.289-14.214-.632-28.43-1.342-42.639-.368-7.354-.18-14.944-2.073-22.239a11.256 11.256 0 0 0-.542-1.512q-2.984-7.125-5.939-14.253c-3.969-9.619-7.83-19.254-11.378-28.929a391.479 391.479 0 0 1-16.356-58.046c-6.752-33.734-9.539-67.675-12.315-101.58l-2-24.479-4.136-50.523-4.867-59.462-4.2-51.294-2.13-26.018c-.086-1.047-.49-.679-2.663-.679l1.621 19.808 3.933 48.05 4.848 59.226 4.366 53.339 2.488 30.389c2.24 27.37 4.446 54.753 8.692 82.049a417.992 417.992 0 0 0 13.423 59.681c6.629 21.399-14.286-46.125 0 .001z" class="cls-5"/>
                        <path id="Path_2193" d="M3288.794 3506.751c6.971 18.5 14.487 37 19.7 55.7a278.859 278.859 0 0 1 9.283 53.69c2.9 37.957-1.154 76.035-9.543 113.69a572.925 572.925 0 0 1-16.472 58.482c-3.2 9.5-7 18.936-9.663 28.492a172.6 172.6 0 0 0-5.26 27.62c-4.1 37.462 2.918 74.942 9.551 112.165 3.344 18.767 6.645 37.545 8.515 56.384a286.066 286.066 0 0 1-.055 56.47c-3.867 39.3-9.708 78.528-12.524 117.861-2.83 39.525-1.679 79.076.872 118.595q.741 11.486 1.6 22.968.435 5.857.887 11.715.225 2.92.452 5.839c.057.724-.407 1.166.916 1.166h1.782c-3.066-39.375-5.919-78.776-5.591-118.2.328-39.388 4.908-78.667 9.551-117.947 2.3-19.487 5.069-39.014 6-58.543.894-18.748-.652-37.507-3.2-56.195-5.12-37.572-14.354-74.962-16.7-112.655-1.154-18.562-.6-37.194 3.1-55.658 3.848-19.207 11.969-38.044 17.751-57.072 11.592-38.149 19.387-76.759 21.1-115.5 1.6-36.2-2.094-72.627-14.324-108.185-13.162-38.268-29.385-76.161-41.034-114.607-11.556-38.135-19.024-76.97-14.828-115.719a191.869 191.869 0 0 1 14.8-55.425h-2.26c-.917 0-1.178 1.79-1.384 2.283q-1.547 3.711-2.946 7.442-2.677 7.148-4.741 14.366a186.953 186.953 0 0 0-5.785 28.793 228.227 228.227 0 0 0 .832 57.862c5.211 38.893 18.4 77.246 32.562 115.326q3.5 9.4 7.052 18.795c4.781 12.681-27.964-74.217.004.002z" class="cls-5"/>
                        <path id="Path_2194" d="M3390.489 3973.294l.16 13.3.425 35.266q.3 25.151.606 50.3.353 29.2.7 58.4l.718 59.559.648 53.785.5 41.075.258 21.429c.165 13.728.331 27.458.008 41.186h2.2c.848 0 .449-1.913.458-2.384q.077-3.87.106-7.74.062-7.407 0-14.817-.049-7.45-.151-14.9l-.062-5.14-.335-27.84-.548-45.475-.677-56.174-.722-59.936-.684-56.763-.562-46.654-.357-29.609q-.082-6.824-.15-13.646-.157-18.513-.237-37.025-.159-27.043-.357-54.087-.25-32.87-.622-65.74-.416-35.992-1.036-71.985-.642-36.411-1.6-72.821-.921-34.126-2.3-68.248c-.82-19.427-1.788-38.852-3.16-58.269-1.01-14.3-2.148-28.611-4.162-42.879-2.26-16.009-4.369-32.011-5.071-48.073a276.148 276.148 0 0 1 2.475-50.464c5.485-39.17 17.012-77.965 19.43-117.287.363-5.914.592-11.83.731-17.747h-2.2c-.846 0-.455 1.889-.468 2.359q-.107 3.837-.27 7.672c-.212 4.915-.5 9.829-.9 14.74-.8 9.8-2.091 19.577-3.729 29.339-3.256 19.4-7.736 38.726-11.4 58.1-3.468 18.35-6.125 36.755-6.5 55.222a341.8 341.8 0 0 0 2.919 49.049c2.075 16.74 4.478 33.424 5.811 50.193 1.476 18.563 2.49 37.139 3.352 55.715 1.033 22.255 1.811 44.514 2.464 66.773q1.063 36.2 1.724 72.409.695 36.311 1.132 72.624.42 33.708.688 67.417.233 28.395.394 56.791.12 20.37.246 40.742.042 6.127.107 12.258z" class="cls-5"/>
                        <path id="Path_2195" d="M3467.392 3804.736c23.157 32.826 32.608 68.283 37.984 103.406 2.488 16.255 4.06 32.549 5.883 48.832q3.249 29.02 6.142 58.054c3.879 39.242 7.146 78.506 9.444 117.791 2.326 39.765 3.661 79.552 3.633 119.341-.022 31.816-.914 63.633-2.874 95.429h2.2c.853 0 .525-1.928.553-2.4q.234-3.9.447-7.811.409-7.51.741-15.021.665-15.012 1.034-30.029.742-29.978.407-59.961c-.413-39.736-2.123-79.465-4.761-119.172-2.6-39.182-6.113-78.341-10.172-117.481-1.881-18.133-3.925-36.26-5.887-54.391-1.814-16.759-3.8-33.517-7.081-50.205a251.288 251.288 0 0 0-15.794-52.239 194.478 194.478 0 0 0-13.466-25.627c-5.4-8.621-11.633-17.005-16.114-25.817-17.962-35.32-16.857-72.592-10.887-108.9 3.077-18.713 7.421-37.345 11.354-56 4.057-19.238 7.28-38.491 12.707-57.627 5.5-19.389 11.919-38.685 17.375-58.079q8.231-29.253 14.654-58.664a1156.851 1156.851 0 0 0 19.391-118.122q3.844-34.047 5.906-68.15h-2.2c-.851 0-.526 1.9-.556 2.374q-.245 3.858-.509 7.716-.512 7.42-1.1 14.838-1.18 14.841-2.694 29.67-3.031 29.663-7.489 59.269a1087.505 1087.505 0 0 1-24.429 117.9c-5.2 19.456-11.3 38.817-17.159 58.208-2.94 9.725-5.743 19.465-8.114 29.241-2.33 9.6-3.942 19.247-5.841 28.879-7.3 37-17.9 73.975-17.989 111.31-.072 28.423 6.599 56.984 25.261 83.438z" class="cls-5"/>
                        <path id="Path_2196" d="M3635.149 3569.652c7.839 39.436 15.07 78.939 20.953 118.491 5.886 39.575 9.852 79.219 10.449 118.944.591 39.328 3.02 78.638 6.215 117.921 3.213 39.507 7.2 78.99 10.923 118.481 3.73 39.577 7.193 79.167 9.348 118.786 2.154 39.6 3 79.227 1.488 118.837-.847 22.176-2.434 44.343-4.942 66.477h2.2c.86 0 .621-1.9.674-2.373q.424-3.855.813-7.713.747-7.414 1.363-14.835 1.233-14.837 1.972-29.685c1-19.8 1.378-39.6 1.275-59.406-.207-39.634-2.351-79.257-5.385-118.85s-6.955-79.134-10.728-118.691c-3.76-39.413-7.376-78.833-9.794-118.282-1.2-19.63-2.109-39.267-2.583-58.908-.478-19.784-.842-39.548-2.377-59.318-3.09-39.77-9.138-79.44-16.091-119.039-3.465-19.741-7.037-39.479-10.86-59.2-3.792-19.556-8.048-39.093-10.438-58.729a242.884 242.884 0 0 1 .1-59.108c2.341-19.115 6.451-38.141 10.706-57.14 8.763-39.132 18.87-78.157 28.744-117.2q3.442-13.612 6.826-27.23h-2.22c-.88 0-.876 1.876-1 2.361q-.953 3.835-1.912 7.669-1.842 7.359-3.7 14.716-3.686 14.585-7.4 29.168c-4.945 19.5-9.856 39.013-14.54 58.539-4.623 19.271-9.125 38.56-12.973 57.889-3.858 19.374-6.8 38.836-7.093 58.35-.4 26.475 4.762 52.814 9.982 79.076 1.256 6.298-4.709-23.713.005.002z" class="cls-5"/>
                        <path id="Path_2197" d="M3765.1 3804.736c5.821 39.314 9.69 78.714 13.288 118.113 3.593 39.333 6.907 78.678 11.627 117.973q7.025 58.471 19.809 116.56c8.6 39.31 17.026 78.638 23.94 118.061q3.341 19.047 6.166 38.122 1.4 9.545 2.646 19.1.621 4.775 1.2 9.553.29 2.388.566 4.778c.109.933 1.236.6 2.681.6-4.582-39.691-11.519-79.278-19.446-118.788-7.819-38.979-17.4-77.85-24.454-116.878-7.037-38.951-11.619-78.035-15.473-117.13-3.881-39.371-7.017-78.765-11.084-118.13-2.033-19.673-4.3-39.338-7.006-58.984-1.217-8.831-2.162-17.655-5.48-26.325-3.11-8.125-7.6-16.052-12.511-23.867-10.022-15.947-22.011-31.541-29.435-48-3.588-7.953-6.054-16.111-6.377-24.342a220.425 220.425 0 0 1 1.234-29.27c2.9-30.655 10.225-61.088 17.475-91.478l9.231-38.692 13.824-57.945 8.592-36.015c7.68-32.191 15.34-64.42 26.809-96.248 10.12-28.082 24.194-55.614 34.9-83.616h-2.251c-.906 0-1.126 1.837-1.318 2.331q-1.478 3.786-3.027 7.562c-1.976 4.824-4.028 9.638-6.117 14.446-4.133 9.509-8.419 19-12.535 28.508a526.423 526.423 0 0 0-21.074 57.464c-7.354 24.462-13.126 49.069-18.993 73.662l-10.7 44.87-13.628 57.122-6.725 28.192c-9.306 39-18.642 78.189-18.329 117.643.269 34.025 34.714 63.841 47.795 96.244a65.252 65.252 0 0 1 4.18 14.804z" class="cls-5"/>
                        <path id="Path_2198" d="M3800.3 3287.494c7.236 38.987 20.914 77.487 25.5 116.651 2.3 19.6 2.92 39.26 2.955 58.905.017 9.721-.112 19.442-.255 29.163a29.426 29.426 0 0 0 .078 3.919q1.557 13.219 3.033 26.44 3 26.651 5.791 53.308 3.576 34.119 6.779 68.25c2.212 23.749 4.264 47.5 6 71.265 1.515 20.777 2.836 41.563 3.444 62.356.764 26.113-.64 52.224-1.817 78.326-1.793 39.763-4.047 79.519-5.5 119.287q-2.158 58.98-.757 117.942c.905 39.317 1.661 78.639 1.057 117.959-.572 37.293-2.665 74.743-13.127 111.61-2.351 8.285-5.193 16.518-8.335 24.714h2.251c.911 0 1.121-1.852 1.306-2.347q1.432-3.813 2.769-7.638 2.513-7.215 4.577-14.478a291.83 291.83 0 0 0 6.548-28.708 434.689 434.689 0 0 0 5.857-56.456c1.733-38.24 1.067-76.528.34-114.774-.746-39.2-1.76-78.38-.811-117.585.96-39.7 3.049-79.39 4.993-119.078 1.562-31.888 3.8-63.828 3.521-95.732-.167-19.4-1.247-38.792-2.51-58.174-1.523-23.382-3.433-46.755-5.515-70.123q-3.127-35.082-6.75-70.149-2.982-29.128-6.214-58.248-1.906-17.213-3.905-34.423a52.047 52.047 0 0 1-.5-6.873c.289-19.554.527-39.113-.341-58.664a372.441 372.441 0 0 0-7.047-58.923c-4.011-19.433-9.438-38.754-14.234-58.124-2.451-9.9-4.741-19.814-6.588-29.758q-1.37-7.383-2.408-14.785-.545-3.849-1.007-7.7c-.038-.32-.217-2.964-.458-2.964h-2.5c.963 8.55 2.2 17.09 3.782 25.61 2.963 15.952-1.58-8.52-.002-.001z" class="cls-5"/>
                    </g>
                </g>
            </g>
        </g>
    </g>
</svg>
